<svg xmlns="http://www.w3.org/2000/svg" viewBox="0 0 470.55 390.53"><defs><style>.cls-1{fill:none;stroke:#000;stroke-miterlimit:10;stroke-width:5px;}</style></defs><g id="Layer_2" data-name="Layer 2"><g id="Layer_1-2" data-name="Layer 1"><g id="Layer_1-3" data-name="Layer 1"><polygon class="cls-1" points="351.45 2.5 119.1 2.5 2.92 195.27 119.1 388.03 351.45 388.03 467.63 195.27 351.45 2.5"/></g><g id="Layer_2-2" data-name="Layer 2"><path d="M163.68,361c-.51,2.87-3,12.5-3.89,15.37H120.5v-2.59c7.69-.83,8.36-1.3,8.36-9.16V327.87c0-7.87-.84-8.33-7.6-9.07v-2.59H143.9v2.59c-6.76.74-7.69,1.11-7.69,9.07v37.67c0,5.65.68,6.94,5.49,7l6.67.09c4.31,0,5.58-.56,7.52-2.87a32,32,0,0,0,5.15-9.53Z"/><path d="M227,318.79c-5.32.37-7.27,1.85-7.44,6.11-.08,2.13-.25,6-.25,14.53v10c0,9.44-1,16.66-5.91,22.31-4,4.54-9.72,5.92-15.55,5.92-4.9,0-10.14-1.11-13.86-4.26-5.07-4.26-7.52-10.64-7.52-21.47v-23.6c0-8.33-.68-8.89-7.44-9.53v-2.59h22.22v2.59c-6.76.46-7.44,1.2-7.44,9.53v23.14c0,13.51,5.83,20.92,16,20.92,12,0,15.8-8.14,15.8-23.51v-9.44c0-8.52-.25-12-.42-14.53-.25-4.17-2.2-5.74-8.45-6.11v-2.59H227v2.58Z"/><path d="M290.07,318.79c-5.41.65-7.18,1.57-7.44,5.83-.08,3-.25,6.85-.25,15.46V377.2h-3.21L243,328.79v23.14c0,8.33.25,12.5.42,15.18.17,4.72,2.28,6.11,8.36,6.66v2.59H231.27v-2.59c5.24-.46,7.27-1.85,7.6-6.39.25-3,.42-7.13.42-15.55v-23.6c0-2.59-.17-4.07-1.69-6.11-1.6-2.31-3.38-2.87-7.52-3.33V316.2h12.67l35.82,46.56V340.08c0-8.61-.17-12.59-.42-15.37-.25-4.17-2.2-5.46-9-5.92V316.2h20.87v2.59Z"/><path d="M319.56,316.2c11.91,0,19.43,2.59,24.67,8.05,4.14,4.44,7.18,10.92,7.18,19.81,0,10.83-4.06,19.62-10.56,25s-14.62,7.31-25,7.31H296.07v-2.59c7.27-.74,7.6-1.39,7.6-9V327.86c0-8-1-8.33-7.6-9.07V316.2ZM311,364.05c0,6.94,2.7,8.89,9,8.89,15.21,0,23-11.38,23-27.58,0-10.09-3.13-17.77-9.8-22.21-3.89-2.68-8.79-3.7-14.45-3.7-3.8,0-5.83.55-6.67,1.29-.76.56-1.1,1.57-1.1,5.18Z"/><path d="M335.26,119.13c1.67,7.23,11.3,11.94,19.36,18,2.49,1.88,5.23,3.42,7.79,5.2,7,4.85,6.7,9.67-.37,14.07s-5.41,8.1.92,10.82,8.17,6.2,3.46,11.67c-3.26,3.78-1.42,4.65,2.3,5.68,6.25,1.74,9.39,4.61,3.29,10.67-3.42,3.4-1.93,6.94,1.16,10.21,2.89,3.06,6.29,6.16,7.77,9.9,3.52,8.93-.81,14.88-11.22,16.8-7.06,1.3-14.06,3.28-21.17,3.79-12.18.88-18.31,8.7-24.13,18-9.24,14.84-22.52,25.74-37,35.24-1.12.74-2.7.78-4.06,1.15a22,22,0,0,1,1.78-3.72,115.49,115.49,0,0,0,21-51.57c.08-.54-.16-1.45.1-1.61,14.91-9.09,8.77-29.37,21.15-39.87a13.41,13.41,0,0,1,5.7-2.85c3.75-1,6.94-3.19,7.18-7.44.19-3.39-.64-7.75-4.44-8-11.06-.75-12.9-11.06-18.73-17.09-4.05-4.18-6.93-9.5-10.34-14.3-.43-.6-1.33-1.2-1.3-1.75C306.57,125.38,289,116,288.71,99.5c-.13-6.63-5.56-12.79-.74-20.14,2-3,.41-7.31-3.58-9.34-3.35-1.72-8-2.44-9.73.45-3.68,6.07-9.2,4.55-14.08,4.71-9.32.31-18.67-.24-28-.43-.55,0-1.33.21-1.63-.08-14.55-14.2-18.63,2-25.84,8.91-5.75,5.53-23.69,4.51-27.94-2-3.61-5.53-7.71-7.48-13.92-4.43-1.8.88-4.65,2-5.89-.53s1-4,3.06-5.11c21.71-12.08,44.12-21.78,69.66-21.62,14.35.09,28.77-1.17,43-.14,24.93,1.8,42.17,16,54.05,37.22C332,95.58,334.13,105.13,335.26,119.13Z"/><path d="M226.86,218.23l-21-2.94c-5-.7-3.91-5.69-5.57-8.55-7.34-12.62-3.7-27.41,8.32-35.69,3.65-2.51,9.2-1.74,10.61.93,2.15,4.06,2.08,10.59-1.89,13.64-5.57,4.28-8,8.66-3.72,14.25,3.06,4,7.91,3.71,11.68.06,5.08-4.91,2.95-9-1.08-13.76-2.9-3.41-.28-8,.58-12,.52-2.43,2.67-2.36,4.49-2,3.5.69,7.46-.13,8.72,5.38,1.16,5.09,3.89,9.88,6.35,14.58,2.72,5.19.52,8.74-3.1,12.17C236.27,209,234.6,217.31,226.86,218.23Z"/><path d="M283.92,142.29c-14.78.53-26.77-5.41-31.57-22.29-1-3.69-1.63-6.48,1.2-9.55,6.86-7.44,13.43-15.14,20.27-22.6,2.8-3.06,5.57-3.85,7.19,1.29,3.59,11.39,8.16,22.57,10.49,34.2,1.08,5.4-3.07,11.47-2.18,17.75C289.57,142.92,287.25,143.37,283.92,142.29Z"/><path d="M260.23,246.92c-4.4-.67-10.93.2-12.76-2.33-4.06-5.62-6.13-12.82-8.23-19.62-.82-2.67,16.47-20.41,18.91-20.33,16.8.55,27.47,9.74,26.76,23.06C284.53,234.69,268.61,246.72,260.23,246.92Z"/><path d="M244.91,79.2c8.28,0,16-.2,23.63.08,4.34.15,4.4,3.06,2.16,5.7-7.16,8.43-14.14,17.07-22,24.79-4.79,4.69-10.52-1.39-16-.85-11.22,1.1-18-4.66-21.94-14.62-2.26-5.67,1.74-8.06,5.6-8.33,5.24-.36,8.77-1.38,12.72-5.6S239.94,79.86,244.91,79.2Z"/><path d="M238.22,250.76c-4.88,4.44-9.8,11-16.37,14.33-8.15,4.08-23.38-3.2-27.84-11.29-4.92-8.92-.16-23,9.17-27.12,7.22-3.18,26,3.65,29.48,10.88C234.42,241.16,235.8,245,238.22,250.76Z"/><path d="M179,127.88c-9.08-.58-15.19-7.84-14.43-17.14.55-6.72,14.7-18.16,22-17.14,4.88.69,10.9-2.82,14.48,2.08,3.18,4.36,6.32,9.72,6.75,14.87C208.39,117.92,189.64,128.56,179,127.88Z"/><path d="M277.84,195.74c-7.07-.87-13.34-1.19-19.39-2.51-6.4-1.4-4.79-8.39-7.3-12.58-5.37-9,.14-27.2,9.67-31,6.16-2.45,12.71,1.89,19.12,3-1.95,5.58-4.24,10.87-11.19,11.54-4.36.42-6.95,3.12-7.46,7a8.42,8.42,0,0,0,4.2,8.43c3.53,2,7.38,2,9.92-1.61,2.23-3.14,4.82-1.44,7.36-1.43,6.78,0,9.44,2.44,4.28,8.29C283.8,188.6,283,194.64,277.84,195.74Z"/><path d="M304.49,180.43c4.54.65,9.18.91,13.61,2,5.91,1.5,9.9,4.26,5.17,11.19-3.72,5.45-6.69,11.41-10.44,16.83-4,5.77-13.47,5-16,12.84a5.79,5.79,0,0,1-3.43-.71c-4-3.76-5.3-21.36-2.22-26.06,2.71-4.14,5.21-8.41,7.81-12.62C300.26,181.86,301.61,179.86,304.49,180.43Z"/><path d="M142.11,151.38c-12.93-.4-15.65-3.43-15.54-17.32.07-9,14.07-20.7,25.09-19.5,9.25,1,6.07,10.62,8.36,16.19C161.67,134.74,146,151.5,142.11,151.38Z"/><path d="M118.88,221.8c2.92-4.08,2.15-12.33,7.35-12.28,5.69.06,13.88-.5,16.86,8,1.76,5,5.06,9.48,6.6,14.53,1.75,5.75-3.83,9.28-6,13.85-1.26,2.71-4.26.47-6.43-.14C125.33,242.38,122.86,231.79,118.88,221.8Z"/><path d="M218.9,116.36c4.58.58,8.07.83,11.48,1.51,2.94.58,8.69-.49,7.91,3.08-.88,4-3.46,9.61-10,9.36-4.2-.16-8,1.35-9.31,5.47-1.18,3.71-.85,7.57,2.92,10.41,3.93,3,.17,6.83.61,10.28.11.84-2.33,2.95-2.71,2.75-3.08-1.6-7.68,1.18-9.67-3.4q-3.83-8.85-7.84-17.61c-1.95-4.21.86-6.55,3.31-9.06C210.1,124.51,212.83,117.9,218.9,116.36Z"/><path d="M319.94,178.56c-15.93-.31-20.87-4.59-25-21.61-.44-1.79-.63-3.76-1.55-5.28-1.92-3.18-3.08-6.91.4-8.77,3.1-1.66,6.8-1.71,9.69,2.81,6,9.44,13.09,18.22,19.59,27.36.86,1.21,1.61,3.17,1.25,4.45C323.71,179.59,321.52,178.57,319.94,178.56Z"/><path d="M234.3,161.38c-2.91-.92-7.53-.31-7.68-4s-1.26-8.53,3.34-10.82c4.13-2.06,5.65-5.34,4.91-9.52-1.05-6,3.77-8.26,6.84-11.64a2.64,2.64,0,0,1,2.37-.14c3,5.36,8.76,11.21,6.85,16.59-2.46,6.92-8.73,12.51-13.51,18.56C236.87,161.11,235.39,161.07,234.3,161.38Z"/><path d="M103.16,158.38c3.45-6.88,2.29-16.29,11.67-20,4.07-1.61,6.35-.71,7,4.42.82,6.94,2.6,13.81-2.33,19.91-2.69,3.33-1.42,10.41-9.45,8.83C101.49,169.88,106.13,163,103.16,158.38Z"/><path d="M133,97.23c-4.75.62-4.32-1-3.36-2.67C134,87,140.64,82,148.41,78.26c2.89-1.37,2.4,1.26,1.86,2.16C145.71,88.06,139.53,94,133,97.23Z"/><path d="M288.72,173.48c-4.64-1.16-11.74.77-11.91-6.57-.1-4.31,4.33-7.72,7.67-10.83a48.75,48.75,0,0,1,6.68,16.06C291.8,174.84,289.64,173.16,288.72,173.48Z"/></g></g></g></svg>